<svg width="52" height="44" viewBox="0 0 52 44" fill="none" xmlns="http://www.w3.org/2000/svg">
<path fill-rule="evenodd" clip-rule="evenodd" d="M46 40V32H48V40H46Z" fill="#52FF00"/>
<path fill-rule="evenodd" clip-rule="evenodd" d="M44 32V24H46V32H44Z" fill="#52FF00"/>
<path fill-rule="evenodd" clip-rule="evenodd" d="M48 20V18H50V20H48Z" fill="#52FF00"/>
<path fill-rule="evenodd" clip-rule="evenodd" d="M46 24V20H48V24H46Z" fill="#52FF00"/>
<path fill-rule="evenodd" clip-rule="evenodd" d="M46 14V12H48V14H46Z" fill="#52FF00"/>
<path fill-rule="evenodd" clip-rule="evenodd" d="M44 16V14H46V16H44Z" fill="#52FF00"/>
<path fill-rule="evenodd" clip-rule="evenodd" d="M48 8H50V10H52V18H50V12H48V8Z" fill="#52FF00"/>
<path fill-rule="evenodd" clip-rule="evenodd" d="M18 40V32H20V40H18Z" fill="#52FF00"/>
<path fill-rule="evenodd" clip-rule="evenodd" d="M16 42V40H18V42H16Z" fill="#52FF00"/>
<path fill-rule="evenodd" clip-rule="evenodd" d="M44 42V40H46V42H44Z" fill="#52FF00"/>
<path fill-rule="evenodd" clip-rule="evenodd" d="M36 34V32H38V34H36Z" fill="#52FF00"/>
<path fill-rule="evenodd" clip-rule="evenodd" d="M38 36V34H40V36H38Z" fill="#52FF00"/>
<path fill-rule="evenodd" clip-rule="evenodd" d="M40 40V36H42V40H40Z" fill="#52FF00"/>
<path fill-rule="evenodd" clip-rule="evenodd" d="M38 40H40V42H44V44H38V40Z" fill="#52FF00"/>
<path fill-rule="evenodd" clip-rule="evenodd" d="M20 30H36V32H20V30Z" fill="#52FF00"/>
<path fill-rule="evenodd" clip-rule="evenodd" d="M12 42V40H10V44H16V42H12Z" fill="#52FF00"/>
<path fill-rule="evenodd" clip-rule="evenodd" d="M12 20H16V22H18V26H16V28H14V40H12V20Z" fill="#52FF00"/>
<path fill-rule="evenodd" clip-rule="evenodd" d="M12 16V20H10V16H12Z" fill="#52FF00"/>
<path fill-rule="evenodd" clip-rule="evenodd" d="M2 14H10V16H2V14Z" fill="#52FF00"/>
<path fill-rule="evenodd" clip-rule="evenodd" d="M2 12V14H8.74224e-08L0 12H2Z" fill="#52FF00"/>
<path fill-rule="evenodd" clip-rule="evenodd" d="M4 10V12H2V10H4Z" fill="#52FF00"/>
<path fill-rule="evenodd" clip-rule="evenodd" d="M6 8V10H4V8H6Z" fill="#52FF00"/>
<path fill-rule="evenodd" clip-rule="evenodd" d="M8 6V8H6V6H8Z" fill="#52FF00"/>
<path fill-rule="evenodd" clip-rule="evenodd" d="M10 2V6H8V2H10Z" fill="#52FF00"/>
<path fill-rule="evenodd" clip-rule="evenodd" d="M14 4L14 2H12L12 6H16V4H14Z" fill="#52FF00"/>
<path fill-rule="evenodd" clip-rule="evenodd" d="M12 0L12 2H10V8.74224e-08L12 0Z" fill="#52FF00"/>
<path fill-rule="evenodd" clip-rule="evenodd" d="M18 8V12H16V8H18Z" fill="#52FF00"/>
<path fill-rule="evenodd" clip-rule="evenodd" d="M20 12V14H18V12H20Z" fill="#52FF00"/>
<path fill-rule="evenodd" clip-rule="evenodd" d="M20 14H24V16H20V14Z" fill="#52FF00"/>
<path fill-rule="evenodd" clip-rule="evenodd" d="M12 8V10H10V8H12Z" fill="#52FF00"/>
<path fill-rule="evenodd" clip-rule="evenodd" d="M16 2H20V8H18V4H16V2Z" fill="#52FF00"/>
<path fill-rule="evenodd" clip-rule="evenodd" d="M24 16V20H26V22H30V24H36V22H38V18H44V16H24Z" fill="#52FF00"/>
</svg>
